<svg xmlns="http://www.w3.org/2000/svg" xmlns:xlink="http://www.w3.org/1999/xlink" width="39.12" height="48.172" viewBox="0 0 39.12 48.172">
  <defs>
    <style>
      .cls-1 {
        fill: #fff;
      }

      .cls-2 {
        filter: url(#Icon_material-person-pin-circle);
      }
    </style>
    <filter id="Icon_material-person-pin-circle" x="0" y="0" width="39.12" height="48.172" filterUnits="userSpaceOnUse">
      <feOffset dy="3" input="SourceAlpha"/>
      <feGaussianBlur stdDeviation="3" result="blur"/>
      <feFlood flood-opacity="0.161"/>
      <feComposite operator="in" in2="blur"/>
      <feComposite in="SourceGraphic"/>
    </filter>
  </defs>
  <g class="cls-2" transform="matrix(1, 0, 0, 1, 0, 0)">
    <path id="Icon_material-person-pin-circle-2" data-name="Icon material-person-pin-circle" class="cls-1" d="M18.06,3A10.572,10.572,0,0,0,7.5,13.56c0,7.92,10.56,19.612,10.56,19.612S28.62,21.48,28.62,13.56A10.572,10.572,0,0,0,18.06,3Zm0,3.017a3.017,3.017,0,1,1-3.017,3.017A3.026,3.026,0,0,1,18.06,6.017Zm0,15.086a7.215,7.215,0,0,1-6.034-3.243c.03-1.991,4.028-3.093,6.034-3.093s6,1.1,6.034,3.093A7.215,7.215,0,0,1,18.06,21.1Z" transform="translate(1.5 3)"/>
  </g>
</svg>
