<svg id="Icon_awesome-home" data-name="Icon awesome-home" xmlns="http://www.w3.org/2000/svg" width="35.357" height="27.495" viewBox="0 0 35.357 27.495">
  <defs>
    <style>
      .cls-1 {
        fill: #fff;
      }
    </style>
  </defs>
  <path id="Icon_awesome-home-2" data-name="Icon awesome-home" class="cls-1" d="M17.209,9.386,5.892,18.707V28.766a.982.982,0,0,0,.982.982l6.878-.018a.982.982,0,0,0,.977-.982V22.874a.982.982,0,0,1,.982-.982H19.64a.982.982,0,0,1,.982.982v5.87a.982.982,0,0,0,.982.985l6.876.019a.982.982,0,0,0,.982-.982V18.7L18.148,9.386A.748.748,0,0,0,17.209,9.386Zm17.875,6.335-5.131-4.23V2.99a.737.737,0,0,0-.737-.737H25.779a.737.737,0,0,0-.737.737V7.447l-5.5-4.521a2.946,2.946,0,0,0-3.744,0L.266,15.721a.737.737,0,0,0-.1,1.037l1.565,1.9a.737.737,0,0,0,1.038.1L17.209,6.87a.748.748,0,0,1,.939,0L32.586,18.761a.737.737,0,0,0,1.037-.1l1.565-1.9a.737.737,0,0,0-.1-1.039Z" transform="translate(0.001 -2.254)"/>
</svg>
