<svg id="Icon_ionic-ios-settings" data-name="Icon ionic-ios-settings" xmlns="http://www.w3.org/2000/svg" width="27.487" height="27.495" viewBox="0 0 27.487 27.495">
  <defs>
    <style>
      .cls-1 {
        fill: #fff;
      }
    </style>
  </defs>
  <path id="Icon_ionic-ios-settings-2" data-name="Icon ionic-ios-settings" class="cls-1" d="M29.718,18.244a3.537,3.537,0,0,1,2.269-3.3,14.02,14.02,0,0,0-1.7-4.087,3.584,3.584,0,0,1-1.439.308A3.529,3.529,0,0,1,25.624,6.2a13.978,13.978,0,0,0-4.08-1.7,3.534,3.534,0,0,1-6.6,0,14.02,14.02,0,0,0-4.087,1.7,3.529,3.529,0,0,1-3.228,4.968,3.468,3.468,0,0,1-1.439-.308A14.33,14.33,0,0,0,4.5,14.951a3.536,3.536,0,0,1,.007,6.6,14.02,14.02,0,0,0,1.7,4.087,3.531,3.531,0,0,1,4.66,4.66,14.1,14.1,0,0,0,4.087,1.7,3.528,3.528,0,0,1,6.586,0,14.02,14.02,0,0,0,4.087-1.7,3.534,3.534,0,0,1,4.66-4.66,14.1,14.1,0,0,0,1.7-4.087A3.554,3.554,0,0,1,29.718,18.244Zm-11.41,5.719a5.727,5.727,0,1,1,5.727-5.727A5.725,5.725,0,0,1,18.308,23.963Z" transform="translate(-4.5 -4.5)"/>
</svg>
