<?xml version="1.0" encoding="UTF-8" standalone="no"?>
<svg
   xmlns:dc="http://purl.org/dc/elements/1.1/"
   xmlns:cc="http://creativecommons.org/ns#"
   xmlns:rdf="http://www.w3.org/1999/02/22-rdf-syntax-ns#"
   xmlns:svg="http://www.w3.org/2000/svg"
   xmlns="http://www.w3.org/2000/svg"
   xmlns:sodipodi="http://sodipodi.sourceforge.net/DTD/sodipodi-0.dtd"
   xmlns:inkscape="http://www.inkscape.org/namespaces/inkscape"
   width="39.12"
   height="48.172"
   viewBox="0 0 39.12 48.172"
   version="1.1"
   id="svg20"
   sodipodi:docname="Icon material-person-pin-circle.svg"
   inkscape:version="1.0.2-2 (e86c870879, 2021-01-15)">
  <metadata
     id="metadata24">
    <rdf:RDF>
      <cc:Work
         rdf:about="">
        <dc:format>image/svg+xml</dc:format>
        <dc:type
           rdf:resource="http://purl.org/dc/dcmitype/StillImage" />
      </cc:Work>
    </rdf:RDF>
  </metadata>
  <sodipodi:namedview
     pagecolor="#ffffff"
     bordercolor="#666666"
     borderopacity="1"
     objecttolerance="10"
     gridtolerance="10"
     guidetolerance="10"
     inkscape:pageopacity="0"
     inkscape:pageshadow="2"
     inkscape:window-width="1560"
     inkscape:window-height="967"
     id="namedview22"
     showgrid="false"
     inkscape:zoom="21.577824"
     inkscape:cx="19.171279"
     inkscape:cy="20.84446"
     inkscape:window-x="2084"
     inkscape:window-y="97"
     inkscape:window-maximized="0"
     inkscape:current-layer="g18"
     inkscape:document-rotation="0" />
  <defs
     id="defs15">
    <style
       id="style2">
      .cls-1 {
        fill: #fff;
      }

      .cls-2 {
        filter: url(#Icon_material-person-pin-circle);
      }
    </style>
    <filter
       id="Icon_material-person-pin-circle"
       x="0"
       y="0"
       width="39.12"
       height="48.172"
       filterUnits="userSpaceOnUse">
      <feOffset
         dy="3"
         input="SourceAlpha"
         id="feOffset4" />
      <feGaussianBlur
         stdDeviation="3"
         result="blur"
         id="feGaussianBlur6" />
      <feFlood
         flood-opacity="0.161"
         id="feFlood8" />
      <feComposite
         operator="in"
         in2="blur"
         id="feComposite10"
         result="result1" />
      <feComposite
         in="SourceGraphic"
         in2="result1"
         id="feComposite12" />
    </filter>
  </defs>
  <g
     class="cls-2"
     transform="matrix(1, 0, 0, 1, 0, 0)"
     id="g18">
    <path
       id="Icon_material-person-pin-circle-2"
       data-name="Icon material-person-pin-circle"
       class="cls-1"
       d="M18.06,3A10.572,10.572,0,0,0,7.5,13.56c0,7.92,10.56,19.612,10.56,19.612S28.62,21.48,28.62,13.56A10.572,10.572,0,0,0,18.06,3Zm0,3.017a3.017,3.017,0,1,1-3.017,3.017A3.026,3.026,0,0,1,18.06,6.017Zm0,15.086a7.215,7.215,0,0,1-6.034-3.243c.03-1.991,4.028-3.093,6.034-3.093s6,1.1,6.034,3.093A7.215,7.215,0,0,1,18.06,21.1Z"
       transform="translate(1.5 3)"
       style="fill:#ffffff;fill-opacity:1"
       inkscape:export-filename="C:\Users\Konrad\Desktop\SkimSpots\skim-spots-app\assets\images\avatar-white.png"
       inkscape:export-xdpi="300"
       inkscape:export-ydpi="300" />
  </g>
</svg>
