<?xml version="1.0" encoding="UTF-8" standalone="no"?>
<svg
   xmlns:dc="http://purl.org/dc/elements/1.1/"
   xmlns:cc="http://creativecommons.org/ns#"
   xmlns:rdf="http://www.w3.org/1999/02/22-rdf-syntax-ns#"
   xmlns:svg="http://www.w3.org/2000/svg"
   xmlns="http://www.w3.org/2000/svg"
   xmlns:sodipodi="http://sodipodi.sourceforge.net/DTD/sodipodi-0.dtd"
   xmlns:inkscape="http://www.inkscape.org/namespaces/inkscape"
   viewBox="0 0 485.6 201.81"
   version="1.1"
   id="svg931"
   sodipodi:docname="logo.svg"
   inkscape:version="1.0.2-2 (e86c870879, 2021-01-15)">
  <metadata
     id="metadata935">
    <rdf:RDF>
      <cc:Work
         rdf:about="">
        <dc:format>image/svg+xml</dc:format>
        <dc:type
           rdf:resource="http://purl.org/dc/dcmitype/StillImage" />
      </cc:Work>
    </rdf:RDF>
  </metadata>
  <sodipodi:namedview
     pagecolor="#ffffff"
     bordercolor="#666666"
     borderopacity="1"
     objecttolerance="10"
     gridtolerance="10"
     guidetolerance="10"
     inkscape:pageopacity="0"
     inkscape:pageshadow="2"
     inkscape:window-width="1920"
     inkscape:window-height="1057"
     id="namedview933"
     showgrid="false"
     inkscape:zoom="1.4198929"
     inkscape:cx="275.91186"
     inkscape:cy="147.27234"
     inkscape:window-x="-8"
     inkscape:window-y="-8"
     inkscape:window-maximized="1"
     inkscape:current-layer="Warstwa_1-2" />
  <defs
     id="defs907">
    <style
       id="style905">.cls-1{fill:#1e1d3f;}</style>
  </defs>
  <g
     id="Warstwa_2"
     data-name="Warstwa 2">
    <g
       id="Warstwa_1-2"
       data-name="Warstwa 1">
      <path
         class="cls-1"
         d="M62.17,15.49c47.2.06,76.83,51,53.84,92.22-15.92,28.54-31.34,57.35-47,86-1.56,2.87-2.79,6-6.92,6-4.38.07-5.65-3.22-7.28-6.21q-23.7-43.44-47.38-86.89C-14.77,65.66,15.41,15.44,62.17,15.49ZM29.62,77.38A32.41,32.41,0,1,0,62.2,44.65C44.4,44.43,29.62,59.28,29.62,77.38Z"
         id="path909"
         style="fill:#f5c39b;fill-opacity:1" />
      <path
         class="cls-1"
         d="M201.83,19.25l-10.52,6.23q-2.94-5.11-5.61-6.68a15,15,0,0,0-16.14,1.28A9.51,9.51,0,0,0,166,27.65q0,6.29,9.35,10.12l8.57,3.51q10.46,4.23,15.29,10.32a23.23,23.23,0,0,1,4.84,14.93q0,11.85-7.89,19.59a27.14,27.14,0,0,1-19.75,7.79q-11.19,0-18.47-6.62t-9-18.64l13.13-2.89q.88,7.56,3.11,10.46,4,5.55,11.69,5.56A13.59,13.59,0,0,0,187,77.72a14.05,14.05,0,0,0,4-10.29,14.54,14.54,0,0,0-.69-4.59A11.74,11.74,0,0,0,188.12,59a17.64,17.64,0,0,0-3.81-3.28,37.21,37.21,0,0,0-5.57-2.93l-8.29-3.44q-17.62-7.45-17.63-21.81a20.66,20.66,0,0,1,7.4-16.19q7.4-6.57,18.41-6.57Q193.48,4.78,201.83,19.25Z"
         id="path911" />
      <path
         class="cls-1"
         d="M232.65,40.72,266.08,6.45h17.3L244.55,45.34l39.06,47H266.25L235.32,54.13l-2.67,2.67V92.35h-13V6.45h13Z"
         id="path913" />
      <path
         class="cls-1"
         d="M308.14,6.45v85.9h-13V6.45Z"
         id="path915" />
      <path
         class="cls-1"
         d="M325.78,92.35,343.86,0l29.48,66.76L403.88,0l16.25,92.35h-13.3L398.54,40.5,373.12,96.3l-24.7-55.86-9.24,51.91Z"
         id="path917" />
      <path
         class="cls-1"
         d="M201.83,127.16l-10.52,6.23q-2.94-5.13-5.61-6.68a13.11,13.11,0,0,0-7.18-1.78,13.27,13.27,0,0,0-9,3.06,9.5,9.5,0,0,0-3.56,7.57q0,6.28,9.35,10.12l8.57,3.5q10.46,4.23,15.29,10.33a23.21,23.21,0,0,1,4.84,14.93q0,11.85-7.89,19.58a27.1,27.1,0,0,1-19.75,7.79q-11.19,0-18.47-6.62t-9-18.63l13.13-2.9q.88,7.58,3.11,10.46,4,5.56,11.69,5.56A13.55,13.55,0,0,0,187,185.62a14,14,0,0,0,4-10.29,14.54,14.54,0,0,0-.69-4.59,11.85,11.85,0,0,0-2.17-3.84,17.91,17.91,0,0,0-3.81-3.28,37.22,37.22,0,0,0-5.57-2.92l-8.29-3.45q-17.62-7.45-17.63-21.81a20.64,20.64,0,0,1,7.4-16.18q7.4-6.57,18.41-6.57Q193.48,112.69,201.83,127.16Z"
         id="path919" />
      <path
         class="cls-1"
         d="M232.65,165.37v34.88h-13V114.36h14.68q10.8,0,16.3,1.5a21.81,21.81,0,0,1,9.8,5.68,24.43,24.43,0,0,1,7.39,18.24q0,11.81-7.9,18.7t-21.3,6.89Zm0-12h4.84q17.85,0,17.86-13.74,0-13.31-18.42-13.3h-4.28Z"
         id="path921" />
      <path
         class="cls-1"
         d="M276.93,156.92q0-18.13,13.3-31.16a43.77,43.77,0,0,1,31.82-13,44.92,44.92,0,0,1,44.67,44.67,42.21,42.21,0,0,1-13.24,31.43,44.32,44.32,0,0,1-32.1,13q-16.63,0-29.87-11.51Q276.93,177.55,276.93,156.92Zm13.07.16q0,14.25,9.57,23.43t22,9.17a30.93,30.93,0,0,0,22.81-9.34,31.65,31.65,0,0,0,9.29-23q0-13.74-9.18-23a32,32,0,0,0-45.23,0A31,31,0,0,0,290,157.08Z"
         id="path923" />
      <path
         class="cls-1"
         d="M403.66,126.54v73.71h-13V126.54H371V114.36h52.4v12.18Z"
         id="path925" />
      <path
         class="cls-1"
         d="M483.38,127.16l-10.52,6.23q-2.94-5.13-5.61-6.68a13.11,13.11,0,0,0-7.18-1.78,13.27,13.27,0,0,0-9,3.06,9.5,9.5,0,0,0-3.56,7.57q0,6.28,9.35,10.12l8.57,3.5q10.45,4.23,15.29,10.33a23.21,23.21,0,0,1,4.84,14.93q0,11.85-7.9,19.58A27.07,27.07,0,0,1,458,201.81q-11.18,0-18.46-6.62t-9-18.63l13.13-2.9q.88,7.58,3.11,10.46,4,5.56,11.69,5.56a13.53,13.53,0,0,0,10.06-4.06,14,14,0,0,0,4-10.29,14.54,14.54,0,0,0-.69-4.59,11.69,11.69,0,0,0-2.18-3.84,17.43,17.43,0,0,0-3.81-3.28,36.6,36.6,0,0,0-5.56-2.92L452,157.25q-17.64-7.45-17.63-21.81a20.64,20.64,0,0,1,7.4-16.18q7.39-6.57,18.41-6.57Q475,112.69,483.38,127.16Z"
         id="path927" />
    </g>
  </g>
</svg>
