<svg xmlns="http://www.w3.org/2000/svg" width="46.364" height="30.826" viewBox="0 0 46.364 30.826">
  <defs>
    <style>
      .cls-1 {
        fill: #fff;
      }
    </style>
  </defs>
  <g id="LogoText" data-name="LogoText" transform="translate(-68.74 -32.62)">
    <path id="Path_10" data-name="Path 10" class="cls-1" d="M77.724,38.67l-1.786,1.056a3.018,3.018,0,0,0-.955-1.129,2.533,2.533,0,0,0-2.74.226,1.612,1.612,0,0,0-.6,1.284q0,1.068,1.58,1.718l1.454.6a6.191,6.191,0,0,1,2.6,1.752,3.953,3.953,0,0,1,.822,2.537,4.46,4.46,0,0,1-1.341,3.327A4.609,4.609,0,0,1,73.4,51.361a4.473,4.473,0,0,1-3.135-1.129,5.062,5.062,0,0,1-1.521-3.16l2.228-.49a3.942,3.942,0,0,0,.539,1.77,2.281,2.281,0,0,0,1.984.944,2.3,2.3,0,0,0,1.709-.688,2.388,2.388,0,0,0,.677-1.749,2.515,2.515,0,0,0-.117-.779,2.031,2.031,0,0,0-.366-.661,2.921,2.921,0,0,0-.648-.558,6.176,6.176,0,0,0-.944-.494l-1.409-.587q-2.993-1.264-2.993-3.7a3.517,3.517,0,0,1,1.255-2.749,4.544,4.544,0,0,1,3.129-1.115A4.369,4.369,0,0,1,77.724,38.67Z" transform="translate(0 -2.78)"/>
    <path id="Path_11" data-name="Path 11" class="cls-1" d="M124.2,43.3l5.677-5.819h2.934l-6.591,6.6,6.634,7.984H129.9l-5.25-6.49-.451.451v6.038H122V37.48h2.2Z" transform="translate(-41.238 -3.763)"/>
    <path id="Path_12" data-name="Path 12" class="cls-1" d="M180.971,37.48V52.067h-2.2V37.48Z" transform="translate(-85.193 -3.763)"/>
    <path id="Path_13" data-name="Path 13" class="cls-1" d="M201.79,48.3l3.07-15.684,5.009,11.338,5.192-11.338L217.821,48.3h-2.257l-1.406-8.8-4.318,9.481L205.645,39.5l-1.58,8.815Z" transform="translate(-103.017 0)"/>
    <path id="Path_14" data-name="Path 14" class="cls-1" d="M76.115,116.808l-1.449.86a2.506,2.506,0,0,0-.772-.921,2.068,2.068,0,0,0-2.223.176,1.314,1.314,0,0,0-.49,1.043q0,.867,1.287,1.393l1.181.483a5.024,5.024,0,0,1,2.106,1.422,3.2,3.2,0,0,1,.677,2.056,3.612,3.612,0,0,1-1.086,2.7,3.745,3.745,0,0,1-2.709,1.072,3.639,3.639,0,0,1-2.544-.9,4.159,4.159,0,0,1-1.232-2.567l1.806-.4a3.084,3.084,0,0,0,.429,1.44,2.032,2.032,0,0,0,2.993.205,1.932,1.932,0,0,0,.537-1.429,2.018,2.018,0,0,0-.095-.632,1.648,1.648,0,0,0-.3-.528,2.386,2.386,0,0,0-.524-.451,5.238,5.238,0,0,0-.767-.4l-1.14-.47q-2.431-1.025-2.429-3a2.842,2.842,0,0,1,1.018-2.228,3.686,3.686,0,0,1,2.537-.9A3.516,3.516,0,0,1,76.115,116.808Z" transform="translate(-0.093 -63.646)"/>
    <path id="Path_15" data-name="Path 15" class="cls-1" d="M113.7,122.83v4.8H111.91V115.805h2.032a9.256,9.256,0,0,1,2.244.205,3.022,3.022,0,0,1,1.354.783,3.363,3.363,0,0,1,1.018,2.512,3.238,3.238,0,0,1-1.088,2.573,4.32,4.32,0,0,1-2.934.95Zm0-1.655h.677q2.458,0,2.46-1.892,0-1.831-2.537-1.833h-.589Z" transform="translate(-33.425 -64.404)"/>
    <path id="Path_16" data-name="Path 16" class="cls-1" d="M146.829,120.873a5.8,5.8,0,0,1,1.831-4.289,6.027,6.027,0,0,1,4.381-1.806,6.185,6.185,0,0,1,6.153,6.153,5.813,5.813,0,0,1-1.824,4.327,6.248,6.248,0,0,1-8.535.2A5.787,5.787,0,0,1,146.829,120.873Zm1.806.023a4.384,4.384,0,0,0,7.487,3.2,4.594,4.594,0,0,0,0-6.336,4.171,4.171,0,0,0-3.111-1.287,4.217,4.217,0,0,0-3.117,1.287,4.259,4.259,0,0,0-1.264,3.133Z" transform="translate(-60.462 -63.612)"/>
    <path id="Path_17" data-name="Path 17" class="cls-1" d="M208.724,117.5v10.158h-1.786V117.5H204.23V115.82h7.223V117.5Z" transform="translate(-104.906 -64.419)"/>
    <path id="Path_18" data-name="Path 18" class="cls-1" d="M247.848,116.808l-1.449.86a2.483,2.483,0,0,0-.774-.921,2.063,2.063,0,0,0-2.221.176,1.307,1.307,0,0,0-.49,1.043q0,.867,1.287,1.393l1.181.483a5.029,5.029,0,0,1,2.106,1.422,3.2,3.2,0,0,1,.666,2.056,3.611,3.611,0,0,1-1.088,2.7,3.736,3.736,0,0,1-2.709,1.072,3.639,3.639,0,0,1-2.544-.9,4.159,4.159,0,0,1-1.232-2.567l1.806-.4a3.156,3.156,0,0,0,.429,1.44,2.032,2.032,0,0,0,3,.205,1.932,1.932,0,0,0,.553-1.418,1.953,1.953,0,0,0-.1-.632,1.6,1.6,0,0,0-.3-.528,2.4,2.4,0,0,0-.526-.451,5.2,5.2,0,0,0-.765-.4l-1.149-.481q-2.431-1.025-2.429-3a2.842,2.842,0,0,1,1.018-2.228,3.686,3.686,0,0,1,2.537-.9A3.528,3.528,0,0,1,247.848,116.808Z" transform="translate(-133.051 -63.646)"/>
  </g>
</svg>
