<?xml version="1.0" encoding="UTF-8" standalone="no"?>
<svg
   xmlns:dc="http://purl.org/dc/elements/1.1/"
   xmlns:cc="http://creativecommons.org/ns#"
   xmlns:rdf="http://www.w3.org/1999/02/22-rdf-syntax-ns#"
   xmlns:svg="http://www.w3.org/2000/svg"
   xmlns="http://www.w3.org/2000/svg"
   xmlns:xlink="http://www.w3.org/1999/xlink"
   xmlns:sodipodi="http://sodipodi.sourceforge.net/DTD/sodipodi-0.dtd"
   xmlns:inkscape="http://www.inkscape.org/namespaces/inkscape"
   viewBox="0 0 248.96 212.72"
   version="1.1"
   id="svg21"
   sodipodi:docname="waves-dark.svg"
   inkscape:version="1.0.2-2 (e86c870879, 2021-01-15)">
  <metadata
     id="metadata25">
    <rdf:RDF>
      <cc:Work
         rdf:about="">
        <dc:format>image/svg+xml</dc:format>
        <dc:type
           rdf:resource="http://purl.org/dc/dcmitype/StillImage" />
        <dc:title></dc:title>
      </cc:Work>
    </rdf:RDF>
  </metadata>
  <sodipodi:namedview
     pagecolor="#ffffff"
     bordercolor="#666666"
     borderopacity="1"
     objecttolerance="10"
     gridtolerance="10"
     guidetolerance="10"
     inkscape:pageopacity="0"
     inkscape:pageshadow="2"
     inkscape:window-width="1920"
     inkscape:window-height="1057"
     id="namedview23"
     showgrid="false"
     inkscape:zoom="3.4552463"
     inkscape:cx="124.48"
     inkscape:cy="106.36"
     inkscape:window-x="-8"
     inkscape:window-y="-8"
     inkscape:window-maximized="1"
     inkscape:current-layer="Warstwa_2" />
  <defs
     id="defs11">
    <style
       id="style2">.cls-1{opacity:0.41;fill:url(#Gradient_bez_nazwy_6);}.cls-2,.cls-3{opacity:0.44;}.cls-2{fill:url(#Gradient_bez_nazwy_6-2);}.cls-3{fill:url(#Gradient_bez_nazwy_6-3);}</style>
    <linearGradient
       id="Gradient_bez_nazwy_6"
       y1="120.17"
       x2="248.96"
       y2="120.17"
       gradientUnits="userSpaceOnUse">
      <stop
         offset="0.01"
         stop-color="#c08d87"
         id="stop4" />
      <stop
         offset="1"
         stop-color="#312f64"
         id="stop6" />
    </linearGradient>
    <linearGradient
       id="Gradient_bez_nazwy_6-2"
       y1="106.36"
       x2="248.91"
       y2="106.36"
       xlink:href="#Gradient_bez_nazwy_6" />
    <linearGradient
       id="Gradient_bez_nazwy_6-3"
       y1="130.9"
       x2="248.88"
       y2="130.9"
       xlink:href="#Gradient_bez_nazwy_6" />
    <linearGradient
       inkscape:collect="always"
       xlink:href="#Gradient_bez_nazwy_6"
       id="linearGradient850"
       gradientUnits="userSpaceOnUse"
       y1="120.17"
       x2="248.96"
       y2="120.17" />
  </defs>
  <g
     id="Warstwa_2"
     transform="translate(0.57882997,0.28941545)">
    <g
       id="Warstwa_1-2">
      <path
         class="cls-1"
         d="m 0,27.63 c 0,0 4.79,29.17 27,28.85 38,-0.54 70.3,-5.18 81.4,19.24 11.1,24.42 7.4,64.38 29.6,72.52 22.2,8.14 39.95,-37 70.29,-45.88 22.3,-6.53 40.64,22.2 40.64,22.2 l -0.08,88.16 H 0 Z"
         id="path13"
         style="fill:url(#linearGradient850)" />
      <path
         class="cls-2"
         d="m 0,49.08 v 163.64 h 248.88 c 0,0 3.1,-71.14 -53.19,-81.59 -43.67,-8.11 -65.25,18.81 -91,11.19 -40,-11.84 -51.8,-77 -57,-99.16 C 42.49,21 32.91,-10.11 0,3.21 Z"
         id="path15"
         style="fill:url(#Gradient_bez_nazwy_6-2)" />
      <path
         class="cls-3"
         d="m 0,49.08 v 163.64 h 248.88 c 0,0 -10.88,-61.18 -95.32,-67.44 -19.85,-1.47 -17,-17.76 -42.91,-44.4 C 84.74,74.24 72.91,103.1 37.39,86.08 13.13,74.46 0,49.08 0,49.08 Z"
         id="path17"
         style="fill:url(#Gradient_bez_nazwy_6-3)" />
    </g>
  </g>
</svg>
