<svg xmlns="http://www.w3.org/2000/svg" xmlns:xlink="http://www.w3.org/1999/xlink" viewBox="0 0 973.84 859.87"><defs><style>.cls-1,.cls-2,.cls-3{opacity:0.29;}.cls-1{fill:url(#Gradient_bez_nazwy_27);}.cls-2{fill:url(#Gradient_bez_nazwy_19);}.cls-3{fill:url(#Gradient_bez_nazwy_24);}</style><linearGradient id="Gradient_bez_nazwy_27" y1="480.76" x2="973.84" y2="480.76" gradientUnits="userSpaceOnUse"><stop offset="0.01" stop-color="#f1c094"/><stop offset="1" stop-color="#5b415d"/></linearGradient><linearGradient id="Gradient_bez_nazwy_19" y1="429.94" x2="973.84" y2="429.94" gradientUnits="userSpaceOnUse"><stop offset="0.01" stop-color="#d89374"/><stop offset="1" stop-color="#1e1d3f"/></linearGradient><linearGradient id="Gradient_bez_nazwy_24" y1="480.76" x2="973.84" y2="480.76" gradientUnits="userSpaceOnUse"><stop offset="0.01" stop-color="#715166"/><stop offset="1" stop-color="#1e1d3f"/></linearGradient></defs><g id="Warstwa_2" data-name="Warstwa 2"><g id="Warstwa_1-2" data-name="Warstwa 1"><path class="cls-1" d="M0,101.65V859.87H973.84s-129-217.2-486.92-238S129,313.9,120.69,284.76,95.72,143.27,0,101.65Z"/><path class="cls-2" d="M0,14.25S208.09-73.14,253.86,184.88s0,449.47,104.05,499.41S632.58,513.66,765.75,534.47,973.84,709.26,973.84,709.26V859.87H0Z"/><path class="cls-3" d="M0,101.65s174.79,12.48,283,224.73,233,217.13,278.83,225,299.64-137.65,412,24.65V859.87H0Z"/></g></g></svg>